<svg width="36" height="28" viewBox="0 0 36 28" fill="none" xmlns="http://www.w3.org/2000/svg">
<path d="M8.13986 0C10.4895 0 12.4196 0.741177 13.9301 2.22353C15.4406 3.65098 16.1958 5.5451 16.1958 7.90588C16.1958 9.00392 16.0559 10.102 15.7762 11.2C15.4965 12.298 14.9091 13.9451 14.014 16.1412L9.14685 28H0.839161L4.44755 14.9882C3.04895 14.3843 1.95804 13.4784 1.17483 12.2706C0.391609 11.0627 0 9.60784 0 7.90588C0 5.5451 0.755245 3.65098 2.26573 2.22353C3.83217 0.741177 5.79021 0 8.13986 0ZM27.9441 0C30.2937 0 32.2238 0.741177 33.7343 2.22353C35.2448 3.65098 36 5.5451 36 7.90588C36 9.00392 35.8601 10.102 35.5804 11.2C35.3007 12.298 34.7133 13.9451 33.8182 16.1412L28.951 28H20.6434L24.2517 14.9882C22.8531 14.3843 21.7622 13.4784 20.979 12.2706C20.1958 11.0627 19.8042 9.60784 19.8042 7.90588C19.8042 5.5451 20.5594 3.65098 22.0699 2.22353C23.6364 0.741177 25.5944 0 27.9441 0Z" fill="#ECECEC"/>
</svg>
